<?xml version="1.0" encoding="UTF-8"?>
<svg id="_레이어_2" data-name="레이어 2" xmlns="http://www.w3.org/2000/svg" viewBox="0 0 115 37.63">
  <defs>
    <style>
      .cls-1 {
        fill: #000;
        stroke-width: 0px;
      }
    </style>
  </defs>
  <g id="_레이어_1-2" data-name="레이어 1">
    <path class="cls-1" d="M46.65,29.01c6.06-2.68,10.64-7.32,15.03-12.11,3.98-4.34,7.77-8.87,11.52-13.43,1.32-1.6,2.82-2.57,4.44-1.17,1.54,1.34.57,2.81-.63,4.28-4.52,5.54-8.89,11.19-13.23,16.87-1.05,1.37-1.78,2.99-3.15,5.35,1.87-.93,2.87-1.56,3.96-1.94,4.54-1.58,9.1-3.08,13.65-4.6.58-.19,1.22-.25,1.74-.53,4.18-2.33,5.31-1.84,6.31,2.99,3.4.7,6.7.29,9.69-1.64,1.43-.93,2.51-1.31,3.7.28.29.39,1.13.66,1.63.56,3.06-.63,4.95.39,5.9,3.48.7,2.26,1.92,3.92,4.82,2.49.63-.31,2.04.18,2.61.77.46.48.49,1.77.2,2.5-1.29,3.19-5.97,4.32-8.68,1.82-1.73-1.59-2.79-3.91-4.49-6.4-1.95,1.57-4.38,3.4-6.67,5.41-3.15,2.77-4.35,2.55-6.09-1.41-.38-.03-.81,0-1.2-.1-3.82-.96-7.06-.63-10.71,1.73-4.21,2.72-7.66.32-7.76-4.76-1.89,1.5-3.6,2.86-5.33,4.2-.82.63-1.61,1.32-2.51,1.83-4.47,2.54-7.07,1.17-7.81-4.27-4.47,1.55-9.06,6.99-13.46-.09-2.97,2.44-5.89,5.72-10.29,3.25-2.63-1.47-1.84-4.05-.95-6.48-2.99,2.32-5.68,4.81-8.75,6.66-2.25,1.36-4.94,2.12-7.53,2.76-3.78.93-5.06-.08-5.74-4-1.41.7-2.73,1.58-4.19,1.98-.77.21-1.78-.43-2.67-.68.44-.77.69-1.92,1.35-2.26,8.82-4.54,15.67-11.54,22.55-18.4,3.01-3.01,5.09-6.96,7.64-10.44.54-.74,1.23-1.51,2.03-1.91,1.42-.7,3.72-2,4.34-1.49,2.08,1.74-.29,2.9-1.29,4.17-.51.65-.97,1.38-1.59,1.91-5.35,4.56-6.69,10.23-4.49,17.28,2.47-1.49,4.95-3.1,7.54-4.51,2.21-1.2,4.36-3.72,7.1-.85.11.12.37.1.57.12,4.28.45,4.64,1.09,2.79,4.92-.85,1.76-1.67,3.52-2.51,5.29.21.19.41.37.62.56ZM13.6,29.91c5.5-.93,10.99-6.1,10.24-12.27-4.02,4.82-7.74,9.27-10.24,12.27ZM33.09,30.4c3.83-.9,9.01-5.72,10.86-10.13-4.79,2.4-7.87,5.94-10.86,10.13ZM78.42,25.21c-2.12,1.99-3.76,3.53-5.41,5.07,4.69.8,6.7-1.07,5.41-5.07Z"/>
  </g>
</svg>