<svg width="20" height="20" viewBox="0 0 20 20" fill="none" xmlns="http://www.w3.org/2000/svg">
    <path fill-rule="evenodd" clip-rule="evenodd"
        d="M10.5467 0.284685C10.224 0.0379176 9.77598 0.0379176 9.45328 0.284685L0.953278 6.78462C0.730599 6.95491 0.599979 7.21922 0.599979 7.49955L0.599978 16.9294C0.599952 17.1837 0.599928 17.4257 0.616593 17.6297C0.634764 17.8521 0.67715 18.1072 0.807067 18.3622C0.989226 18.7197 1.27989 19.0104 1.6374 19.1925C1.89237 19.3224 2.14748 19.3648 2.36989 19.383C2.57384 19.3997 2.81586 19.3996 3.07016 19.3996H16.9297C17.184 19.3996 17.4261 19.3997 17.6301 19.383C17.8525 19.3648 18.1076 19.3224 18.3626 19.1925C18.7201 19.0104 19.0107 18.7197 19.1929 18.3622C19.3228 18.1072 19.3652 17.8521 19.3834 17.6297C19.4 17.4258 19.4 17.1837 19.4 16.9294L19.4 7.49955C19.4 7.21922 19.2694 6.95491 19.0467 6.78462L10.5467 0.284685ZM9.93924 2.1791C9.97509 2.15168 10.0249 2.15168 10.0607 2.1791L17.5607 7.91434C17.5855 7.93326 17.6 7.96263 17.6 7.99378V17.4997C17.6 17.5549 17.5552 17.5997 17.5 17.5997H10.9003V11.9996H9.10027V17.5997H2.49998C2.44475 17.5997 2.39998 17.5549 2.39998 17.4997V7.99378C2.39998 7.96263 2.4145 7.93326 2.43924 7.91434L9.93924 2.1791Z"
        fill="#BCBCBC" />
</svg>