<svg width="24" height="24" viewBox="0 0 24 24" fill="none" xmlns="http://www.w3.org/2000/svg">
<path d="M12.8998 7.10029H11.0998V11.1003H7.09981V12.9003H11.0998V16.9003H12.8998V12.9003H16.8998V11.1003H12.8998V7.10029Z" fill="#BCBCBC"/>
<path fill-rule="evenodd" clip-rule="evenodd" d="M9.6109 2.3501C8.52383 2.35009 7.65315 2.35008 6.94937 2.40758C6.22671 2.46663 5.60115 2.59076 5.0253 2.88417C4.10331 3.35395 3.3537 4.10355 2.88392 5.02554C2.59051 5.60139 2.46638 6.22695 2.40734 6.94962C2.34984 7.65339 2.34985 8.52407 2.34985 9.61114L2.34985 14.389C2.34985 15.4761 2.34984 16.3468 2.40734 17.0506C2.46638 17.7732 2.59051 18.3988 2.88392 18.9746C3.3537 19.8966 4.10331 20.6462 5.0253 21.116C5.60115 21.4094 6.22671 21.5336 6.94937 21.5926C7.65313 21.6501 8.52378 21.6501 9.61082 21.6501H14.3888C15.4758 21.6501 16.3466 21.6501 17.0503 21.5926C17.773 21.5336 18.3986 21.4094 18.9744 21.116C19.8964 20.6462 20.646 19.8966 21.1158 18.9746C21.4092 18.3988 21.5333 17.7732 21.5924 17.0506C21.6499 16.3468 21.6499 15.4762 21.6499 14.3891V9.61115C21.6499 8.52411 21.6499 7.65337 21.5924 6.94962C21.5333 6.22695 21.4092 5.60139 21.1158 5.02554C20.646 4.10355 19.8964 3.35395 18.9744 2.88417C18.3986 2.59076 17.773 2.46663 17.0503 2.40758C16.3466 2.35008 15.4759 2.35009 14.3888 2.3501H9.6109ZM5.84248 4.48798C6.12229 4.34541 6.4846 4.25156 7.09595 4.20161C7.71781 4.1508 8.5149 4.1501 9.64985 4.1501H14.3499C15.4848 4.1501 16.2819 4.1508 16.9038 4.20161C17.5151 4.25156 17.8774 4.34541 18.1572 4.48798C18.7405 4.78519 19.2148 5.25942 19.512 5.84273C19.6545 6.12253 19.7484 6.48484 19.7983 7.09619C19.8492 7.71805 19.8499 8.51514 19.8499 9.6501V14.3501C19.8499 15.4851 19.8492 16.2821 19.7983 16.904C19.7484 17.5154 19.6545 17.8777 19.512 18.1575C19.2148 18.7408 18.7405 19.215 18.1572 19.5122C17.8774 19.6548 17.5151 19.7486 16.9038 19.7986C16.2819 19.8494 15.4848 19.8501 14.3499 19.8501H9.64985C8.5149 19.8501 7.71781 19.8494 7.09595 19.7986C6.4846 19.7486 6.12229 19.6548 5.84248 19.5122C5.25918 19.215 4.78494 18.7408 4.48773 18.1575C4.34517 17.8777 4.25131 17.5154 4.20136 16.904C4.15055 16.2821 4.14985 15.4851 4.14985 14.3501V9.6501C4.14985 8.51514 4.15055 7.71805 4.20136 7.09619C4.25131 6.48484 4.34517 6.12253 4.48773 5.84273C4.78494 5.25942 5.25918 4.78519 5.84248 4.48798Z" fill="#BCBCBC"/>
</svg>
