<svg width="24" height="24" viewBox="0 0 24 24" fill="none" xmlns="http://www.w3.org/2000/svg">
<path d="M19 13V13.9H19.9V13H19ZM19 17H19.9V16.1H19V17ZM5 17V16.1H4.1V17H5ZM5 13H4.1V13.9H5V13ZM7 2.1C5.39837 2.1 4.1 3.39837 4.1 5H5.9C5.9 4.39249 6.39249 3.9 7 3.9V2.1ZM17 2.1H7V3.9H17V2.1ZM19.9 5C19.9 3.39837 18.6016 2.1 17 2.1V3.9C17.6075 3.9 18.1 4.39249 18.1 5H19.9ZM19.9 13V5H18.1V13H19.9ZM17.9 15C17.9 14.3925 18.3925 13.9 19 13.9V12.1C17.3984 12.1 16.1 13.3984 16.1 15H17.9ZM19 16.1C18.3925 16.1 17.9 15.6075 17.9 15H16.1C16.1 16.6016 17.3984 17.9 19 17.9V16.1ZM19.9 19V17H18.1V19H19.9ZM17 21.9C18.6016 21.9 19.9 20.6016 19.9 19H18.1C18.1 19.6075 17.6075 20.1 17 20.1V21.9ZM7 21.9H17V20.1H7V21.9ZM4.1 19C4.1 20.6016 5.39837 21.9 7 21.9V20.1C6.39249 20.1 5.9 19.6075 5.9 19H4.1ZM4.1 17V19H5.9V17H4.1ZM6.1 15C6.1 15.6075 5.60751 16.1 5 16.1V17.9C6.60163 17.9 7.9 16.6016 7.9 15H6.1ZM5 13.9C5.60751 13.9 6.1 14.3925 6.1 15H7.9C7.9 13.3984 6.60163 12.1 5 12.1V13.9ZM4.1 5V13H5.9V5H4.1Z" fill="#BCBCBC"/>
</svg>
